<svg width="16" height="16" viewBox="0 0 16 16" fill="none" xmlns="http://www.w3.org/2000/svg">
<path fill-rule="evenodd" clip-rule="evenodd" d="M0.666748 7.99999C0.666748 3.9499 3.94999 0.666656 8.00008 0.666656C12.0502 0.666656 15.3334 3.9499 15.3334 7.99999C15.3334 12.0501 12.0502 15.3333 8.00008 15.3333C3.94999 15.3333 0.666748 12.0501 0.666748 7.99999ZM7.05726 5.64289C7.57796 5.1222 8.42218 5.1222 8.94288 5.64289L10.3571 7.05711C10.8778 7.57781 10.8778 8.42203 10.3571 8.94273L8.94288 10.3569C8.42218 10.8776 7.57796 10.8776 7.05726 10.3569L5.64305 8.94273C5.12235 8.42203 5.12235 7.57781 5.64305 7.05711L7.05726 5.64289Z" fill="currentColor"/>
</svg>
