<svg width="16" height="16" viewBox="0 0 16 16" fill="none" xmlns="http://www.w3.org/2000/svg">
<g clip-path="url(#clip0_74_1197)">
<path d="M5.28479 7.2595C5.90186 7.2595 6.39553 6.76585 6.39553 6.14875C6.39553 5.53166 5.90186 5.03802 5.28479 5.03802C4.66771 5.03802 4.17404 5.53167 4.17404 6.14875C4.17404 6.76583 4.66771 7.2595 5.28479 7.2595ZM10.7151 7.2595C11.3322 7.2595 11.8258 6.76585 11.8258 6.14875C11.8258 5.53166 11.3322 5.03802 10.7151 5.03802C10.098 5.03802 9.60435 5.53167 9.60435 6.14875C9.48094 6.76585 10.098 7.2595 10.7151 7.2595ZM7.99994 12.5664C9.9746 12.5664 11.7024 11.3322 12.3195 9.481H3.80379C4.29746 11.3323 6.02529 12.5664 7.99994 12.5664ZM7.99994 15.6518C3.80379 15.6518 0.348145 12.1962 0.348145 8C0.348145 3.80385 3.80379 0.348206 7.99994 0.348206C12.1961 0.348206 15.6517 3.80385 15.6517 8C15.6517 12.1962 12.1961 15.6518 7.99994 15.6518Z" fill="currentColor"/>
</g>
<defs>
<clipPath id="clip0_74_1197">
<rect width="16" height="16" fill="white"/>
</clipPath>
</defs>
</svg>
