<svg width="16" height="16" viewBox="0 0 16 16" fill="none" xmlns="http://www.w3.org/2000/svg">
<path d="M3.34401 6.02402C3.42601 6.14402 3.52001 6.26002 3.62601 6.37202C4.03201 6.80202 4.60601 7.16602 5.29201 7.43402C5.52601 7.52602 5.77401 7.60401 6.03401 7.67402C6.49601 7.79202 6.99601 7.87002 7.51601 7.90002C7.67401 7.91002 7.83601 7.91402 8.00001 7.91402C8.16401 7.91402 8.32601 7.91002 8.48401 7.90002C9.00401 7.87002 9.50401 7.79202 9.96601 7.67402C10.226 7.60602 10.474 7.52602 10.708 7.43402C11.394 7.16802 11.966 6.80202 12.374 6.37202C12.48 6.26202 12.574 6.14402 12.656 6.02402C12.742 5.89802 12.816 5.76802 12.874 5.63402C12.984 5.38402 13.044 5.12002 13.044 4.84602C13.044 3.15202 10.786 1.77802 8.00201 1.77802C5.21801 1.77802 2.96001 3.15202 2.96001 4.84602C2.96001 5.11802 3.01801 5.38201 3.13001 5.63402C3.18401 5.76802 3.25801 5.89802 3.34401 6.02402ZM8.00001 11.842C5.95601 11.842 4.18601 11.184 3.12801 10.164C3.01801 10.416 2.95801 10.68 2.95801 10.954C2.95801 12.648 5.21601 14.022 8.00001 14.022C10.784 14.022 13.042 12.65 13.042 10.954C13.042 10.682 12.984 10.418 12.872 10.164C11.814 11.184 10.044 11.842 8.00001 11.842Z" fill="currentColor"/>
<path d="M11.784 7.898C11.63 7.982 11.468 8.062 11.3 8.136C11.11 8.22 10.912 8.296 10.708 8.364C9.90001 8.636 8.98201 8.788 8.00001 8.788C7.01801 8.788 6.10001 8.636 5.29201 8.364C5.08801 8.296 4.89001 8.222 4.70001 8.136C4.53201 8.064 4.37001 7.982 4.21601 7.898C3.80001 7.67 3.43201 7.406 3.12601 7.108C3.01576 7.35681 2.95854 7.62586 2.95801 7.898C2.95801 8.17 3.01601 8.434 3.12801 8.688C3.18401 8.822 3.26001 8.952 3.34601 9.078C3.42801 9.198 3.52201 9.314 3.62801 9.426C4.49801 10.348 6.13001 10.968 8.00201 10.968C9.87401 10.968 11.506 10.348 12.376 9.426C12.482 9.316 12.576 9.198 12.658 9.078C12.744 8.952 12.818 8.822 12.876 8.688C12.986 8.436 13.046 8.172 13.046 7.898C13.046 7.626 12.988 7.362 12.878 7.108C12.568 7.406 12.2 7.67 11.784 7.898Z" fill="currentColor"/>
</svg>
