<svg width="16" height="16" viewBox="0 0 16 16" fill="none" xmlns="http://www.w3.org/2000/svg">
<path fill-rule="evenodd" clip-rule="evenodd" d="M11.9524 1.75242C11.8156 1.41058 11.4276 1.24431 11.0858 1.38105L2.87181 4.66667H1.33341C0.965225 4.66667 0.666748 4.96514 0.666748 5.33333V7.33333C0.666748 7.70152 0.965225 8 1.33341 8C1.69137 8 2.02753 8.12007 2.26551 8.33161C2.49122 8.53224 2.66675 8.84757 2.66675 9.33333C2.66675 9.81911 2.49122 10.1344 2.26552 10.3351C2.02755 10.5466 1.6914 10.6667 1.33341 10.6667C0.965225 10.6667 0.666748 10.9651 0.666748 11.3333V13.3333C0.666748 13.7015 0.965225 14 1.33341 14H14.6667C15.0349 14 15.3334 13.7015 15.3334 13.3333V11.3333C15.3334 10.9651 15.0349 10.6667 14.6667 10.6667C14.3863 10.6667 14.0523 10.521 13.7757 10.229C13.5031 9.94127 13.3334 9.55892 13.3334 9.16667C13.3334 8.47684 13.916 8 14.6667 8C15.0349 8 15.3334 7.70152 15.3334 7.33333V5.33333C15.3334 4.96514 15.0349 4.66667 14.6667 4.66667H13.1182L11.9524 1.75242ZM6.4619 4.66667H11.6821L10.962 2.86661L6.4619 4.66667ZM5.00008 8.46161C5.00008 8.09342 5.29856 7.79494 5.66675 7.79494H7.66675C8.03494 7.79494 8.33342 8.09342 8.33342 8.46161C8.33342 8.8298 8.03494 9.12828 7.66675 9.12828H5.66675C5.29856 9.12828 5.00008 8.8298 5.00008 8.46161ZM5.00008 10.4616C5.00008 10.0934 5.29856 9.79494 5.66675 9.79494H10.3334C10.7016 9.79494 11.0001 10.0934 11.0001 10.4616C11.0001 10.8298 10.7016 11.1283 10.3334 11.1283H5.66675C5.29856 11.1283 5.00008 10.8298 5.00008 10.4616Z" fill="currentColor"/>
</svg>
