<svg width="66" height="21" viewBox="0 0 66 21" fill="none" xmlns="http://www.w3.org/2000/svg">
<g id="&#231;&#137;&#185;&#229;&#136;&#169;&#233;&#155;&#134;">
<path id="Vector" d="M46.4972 13.3902H65.3274V15.3831H46.4972V13.3902ZM50.4965 5.66755H63.1194V7.28681H50.4965V5.66755ZM50.4965 8.15872H63.1402V9.77797H50.4965V8.15872ZM49.9966 2.86499H64.1609V4.8164H49.9966V2.86499ZM55.1832 4.08981H57.5786V11.3765H55.1832V4.08981ZM54.6 12.0615H57.0996V20.0956H54.6V12.0615ZM54.4125 14.2206L56.2872 15.134C54.1417 17.2515 50.559 19.0783 47.3928 19.9918C47.0387 19.369 46.3305 18.4555 45.7889 17.9365C48.9551 17.2722 52.5586 15.819 54.4125 14.2206ZM57.3703 14.1583C59.1617 15.736 62.682 17.1892 65.8064 17.8743C65.2857 18.3725 64.5983 19.2859 64.2442 19.888C61.0989 18.9953 57.5995 17.1684 55.4748 15.0925L57.3703 14.1583ZM56.2247 0.62294L59.0367 0.955095C58.3702 2.20068 57.6203 3.36322 57.0371 4.17285L54.8291 3.7369C55.3498 2.84423 55.9331 1.55713 56.2247 0.62294ZM50.8923 0.581421L53.4543 1.07965C52.0587 3.50854 50.2257 5.89591 47.6636 7.95112C47.2679 7.39061 46.4555 6.6225 45.8931 6.26958C48.226 4.58804 49.9341 2.40828 50.8923 0.581421ZM48.8718 4.13133H51.2464V10.6706H64.7649V12.5598H48.8718V4.13133Z" fill="white"/>
<path id="Vector_2" d="M23.4802 6.78859H33.4785V9.09292H23.4802V6.78859ZM34.4783 3.13488H36.9154V14.8018H34.4783V3.13488ZM27.4587 2.67817H29.9166V20.0956H27.4587V2.67817ZM39.415 1.01739H41.8938V17.0646C41.8938 18.5386 41.6022 19.2237 40.7481 19.6389C39.8733 20.0333 38.4985 20.1163 36.5822 20.1163C36.4572 19.3897 36.0614 18.248 35.7073 17.5421C37.0821 17.5836 38.4152 17.5836 38.8526 17.5836C39.2484 17.5836 39.415 17.4591 39.415 17.0646V1.01739ZM31.6455 0.705994L33.4368 2.61589C30.7915 3.65387 27.1254 4.3597 23.9801 4.79566C23.8759 4.23514 23.5218 3.36324 23.2302 2.84424C26.2714 2.38753 29.625 1.61942 31.6455 0.705994ZM27.4378 7.88885L29.1251 8.61544C28.0836 11.7294 26.2505 15.4454 24.2925 17.5214C24.0426 16.774 23.4177 15.736 23.0011 15.0717C24.7925 13.3487 26.6046 10.3177 27.4378 7.88885ZM29.5417 9.98558C30.354 10.5046 32.9369 12.6636 33.541 13.2033L32.1246 15.3416C31.208 14.2206 29.2709 12.2069 28.2502 11.2727L29.5417 9.98558Z" fill="white"/>
<path id="Vector_3" d="M8.87843 2.47055H18.9184V4.73336H8.87843V2.47055ZM7.62864 6.49793H19.8349V8.80226H7.62864V6.49793ZM8.0869 10.6706H19.6266V12.975H8.0869V10.6706ZM12.5861 0.602173H15.0649V7.76427H12.5861V0.602173ZM15.0649 8.55314H17.5437V17.3345C17.5437 18.6008 17.2937 19.2859 16.4605 19.6596C15.6273 20.0333 14.44 20.0955 12.8569 20.0955C12.7736 19.369 12.4403 18.3102 12.1071 17.6251C13.1277 17.6667 14.2734 17.6667 14.6275 17.6459C14.9608 17.6459 15.0649 17.5836 15.0649 17.293V8.55314ZM8.81594 14.096L10.6698 12.9542C11.5863 13.8676 12.6903 15.1755 13.1902 16.0889L11.2114 17.376C10.774 16.4626 9.71163 15.0925 8.81594 14.096ZM0.213212 11.6879C2.25454 11.2311 5.2957 10.38 8.17022 9.57037L8.5035 11.7501C5.87893 12.5805 3.02524 13.4317 0.817278 14.0752L0.213212 11.6879ZM3.96259 0.622932H6.25387V20.1163H3.96259V0.622932ZM1.21305 1.70244L3.29603 2.05535C3.02524 4.79564 2.52533 7.68123 1.77545 9.54961C1.40051 9.23821 0.50483 8.6777 0.00491333 8.42859C0.671469 6.74705 1.02558 4.15208 1.21305 1.70244ZM1.77545 4.54652H7.98275V6.91313H1.31719L1.77545 4.54652Z" fill="white"/>
</g>
</svg>
